<svg width="1280" height="684" viewBox="0 0 1280 684" fill="none" xmlns="http://www.w3.org/2000/svg">
<path fill-rule="evenodd" clip-rule="evenodd" d="M1324.16 454.472C1296.77 477.374 1275.6 508.099 1264 543.215C1256.21 566.812 1252.42 591.177 1250.59 615.726L1248.25 615.726C1250.08 590.985 1253.91 566.396 1261.78 542.563C1273.73 506.4 1295.7 474.831 1324.16 451.532L1324.16 454.472" fill="#FF8039" fill-opacity="0.15"/>
<path fill-rule="evenodd" clip-rule="evenodd" d="M1324.16 403.167C1323.21 403.808 1322.25 404.416 1321.3 405.069C1270.1 440.049 1234.46 491.597 1218.21 554.12C1212.92 574.513 1209.21 595.44 1206.32 615.726L1203.97 615.726C1206.86 595.28 1210.6 574.173 1215.94 553.597C1232.32 490.548 1268.28 438.574 1319.94 403.282C1321.34 402.322 1322.75 401.403 1324.16 400.472L1324.16 403.167" fill="#FF8039" fill-opacity="0.15"/>
<path fill-rule="evenodd" clip-rule="evenodd" d="M-49.4861 27.4192C-45.4284 38.9 -41.2231 50.7661 -37.3498 62.324C-18.7211 117.889 5.2564 180.78 54.4195 223.861C91.5294 256.379 141.218 264.996 189.284 273.334C202.435 275.61 216.019 277.964 229.123 280.775C261.18 287.647 293.328 296.115 327.394 306.666C337.889 309.903 348.854 312.973 359.478 315.934C382.312 322.306 405.905 328.9 427.656 338.03C460.301 351.757 469.376 378.589 473.653 400.439C479.011 427.954 485.496 457.118 500.378 484.526C523.637 527.33 563.847 558.363 626.912 582.181C659.165 594.356 692.577 605.261 725.312 615.726L696.439 615.726C671.998 607.75 647.422 599.413 623.445 590.358C559.051 566.05 516.073 532.74 492.069 488.546C476.604 460.067 469.938 430.189 464.444 402.033C458.658 372.345 446.524 355.615 423.851 346.091C402.663 337.185 379.361 330.676 356.822 324.39C346.152 321.407 335.095 318.317 324.489 315.035C290.7 304.57 258.819 296.179 227.048 289.37C214.119 286.6 200.636 284.271 187.596 282.003C138.221 273.441 87.1581 264.578 48.0563 230.317C-2.78532 185.771 -27.2792 121.621 -46.2584 64.9731C-50.1132 53.4923 -54.3001 41.6585 -58.3578 30.211C-58.5976 29.5148 -58.8466 28.8098 -59.0956 28.1154L-59.0956 0.000101906C-55.9416 9.19351 -52.7046 18.3335 -49.4861 27.4192" fill="#FF8039" fill-opacity="0.15"/>
<path fill-rule="evenodd" clip-rule="evenodd" d="M1152.31 615.726C1153.72 610.993 1155.1 606.271 1156.47 601.613C1171.05 551.944 1186.14 500.586 1215.3 455.895C1242.9 413.608 1280.67 381.45 1324.16 350.413L1324.16 353.18C1281.46 383.768 1244.4 415.521 1217.29 457.048C1188.3 501.472 1173.26 552.681 1158.72 602.2C1157.42 606.654 1156.08 611.186 1154.74 615.726L1152.31 615.726" fill="#FF8039" fill-opacity="0.15"/>
<path fill-rule="evenodd" clip-rule="evenodd" d="M1268.23 97.6581C1287.39 101.985 1306.27 108.845 1324.16 117.689L1324.16 120.155C1306.12 111.15 1287.05 104.176 1267.68 99.7959C1209.82 86.7087 1148.11 93.2484 1067.59 120.988C996.206 145.59 932.784 173.6 879.084 204.249C834.966 229.427 799.252 260.533 761.441 293.468C751.655 301.982 741.539 310.795 731.347 319.417C720.782 328.367 709.869 337.278 699.314 345.898C684.538 357.958 669.277 370.436 654.712 383.169C651.91 385.636 648.958 388.148 645.94 390.721C626.883 406.991 605.293 425.429 597.116 447.286C594.885 453.266 593.736 459.377 593.736 465.465L593.736 465.477C593.759 508.934 651.177 544.486 675.864 557.752C720.376 581.671 768.786 599.317 816.484 615.726L809.693 615.726C763.852 599.862 717.516 582.664 674.704 559.664C643.597 542.946 591.416 508.475 591.416 465.477L591.416 465.465C591.416 459.132 592.587 452.766 594.908 446.559C603.286 424.167 625.113 405.538 644.374 389.097C647.383 386.522 650.321 384.013 653.125 381.556C667.711 368.791 682.995 356.313 697.771 344.231C708.326 335.621 719.228 326.713 729.792 317.781C739.963 309.171 750.077 300.359 759.852 291.845C797.753 258.835 833.548 227.653 877.868 202.369C931.703 171.647 995.261 143.573 1066.79 118.917C1147.76 91.0256 1209.89 84.4658 1268.23 97.6581" fill="#FF8039" fill-opacity="0.15"/>
<path fill-rule="evenodd" clip-rule="evenodd" d="M1076.4 615.726C1078.34 614.227 1080.24 612.623 1082.09 610.866C1104.05 589.953 1117.35 562.671 1130.21 536.288C1132 532.639 1133.78 528.978 1135.58 525.35C1158.21 479.7 1190.59 420.534 1240.37 367.736C1248.94 358.65 1258.51 349.733 1268.64 340.306C1289.2 321.157 1310.2 301.591 1324.16 279.329L1324.16 283.579C1310.11 304.771 1290 323.511 1270.28 341.866C1260.18 351.274 1250.64 360.169 1242.11 369.202C1192.53 421.797 1160.26 480.781 1137.69 526.291C1135.89 529.909 1134.11 533.56 1132.33 537.22C1119.38 563.774 1105.99 591.226 1083.74 612.418C1082.52 613.584 1081.27 614.676 1080 615.726L1076.4 615.726" fill="#FF8039" fill-opacity="0.15"/>
<path fill-rule="evenodd" clip-rule="evenodd" d="M1256.52 130.989C1281.96 139.105 1307.53 154.816 1324.16 176.224L1324.16 180.053C1307.93 157.735 1281.79 141.383 1255.77 133.075C1209.26 118.22 1155.15 120.369 1090.31 139.629C1029.99 157.564 965.989 185.742 905.247 221.139C851.744 252.311 810.138 291.814 764.128 341.533C762.077 343.745 759.937 346.033 757.729 348.407C728.129 380.116 687.582 423.544 687.582 465.859L687.582 465.871C687.582 472.566 688.64 479.088 690.715 485.249C704.928 527.383 749.744 551.658 796.069 571.623C840.167 590.627 886.83 604.004 933.304 615.726L924.337 615.726C880.546 604.487 836.709 591.558 795.091 573.622C748.292 553.454 702.979 528.87 688.483 485.912C686.343 479.537 685.249 472.8 685.249 465.871C685.249 465.859 685.249 465.859 685.249 465.859C685.249 422.71 726.125 378.918 755.974 346.953C758.182 344.579 760.32 342.291 762.359 340.089C808.516 290.211 850.27 250.579 904.017 219.267C964.92 183.774 1029.1 155.51 1089.61 137.533C1154.93 118.114 1209.54 115.974 1256.52 130.989" fill="#FF8039" fill-opacity="0.15"/>
<path fill-rule="evenodd" clip-rule="evenodd" d="M1261.47 232.766C1261.47 258.11 1247.15 288.246 1218.92 322.334C1176.85 373.12 1140.4 427.19 1107.28 478.051C1105.28 481.109 1103.29 484.209 1101.3 487.318C1088.45 507.373 1075.16 528.099 1056.62 543.643C1030.59 565.45 996.842 570.89 973.112 571.607C966.552 571.798 959.379 571.746 951.186 571.425C890.161 562.295 827.91 548.067 786.913 506.239C772.188 491.199 764.713 473.549 764.713 453.785L764.713 453.774C764.713 417.354 789.569 379.942 808.268 354.958C870.922 271.226 972.101 207.184 1093.14 174.634C1135.6 163.218 1196.54 151.61 1235.46 182.48C1252.72 196.186 1261.47 213.098 1261.47 232.766ZM762.383 453.774L762.383 453.785C762.383 474.128 770.059 492.279 785.202 507.726C826.683 550.057 889.384 564.412 950.96 573.615C959.347 573.948 966.574 574.001 973.193 573.808C997.306 573.071 1031.63 567.534 1058.17 545.289C1076.97 529.533 1090.36 508.646 1103.3 488.452C1105.29 485.352 1107.28 482.262 1109.27 479.205C1142.36 428.397 1178.77 374.392 1220.77 323.681C1249.33 289.206 1263.81 258.614 1263.81 232.766C1263.81 212.423 1254.77 194.935 1236.97 180.793C1197.2 149.248 1135.47 160.963 1092.49 172.517C970.952 205.196 869.325 269.538 806.354 353.686C787.475 378.904 762.383 416.735 762.383 453.774V453.774Z" fill="#FF8039" fill-opacity="0.15"/>
<path fill-rule="evenodd" clip-rule="evenodd" d="M928.061 518.201C900.585 513.967 852.483 501.633 836.52 466.463C832.119 456.767 829.89 446.346 829.89 435.474C829.89 406.014 845.921 372.426 877.551 335.643C928.761 276.069 1017.08 229.803 1102.57 217.758C1129.34 213.984 1163.93 213.824 1176.81 234.486C1180.81 240.923 1182.85 248.35 1182.85 256.582C1182.85 284.696 1159.44 317.995 1143.95 340.026C1142.2 342.506 1140.55 344.868 1139.01 347.092C1130.18 359.856 1121.62 373.046 1113.34 385.809C1096.58 411.658 1079.25 438.371 1059.04 462.454C1044.54 479.741 1027.19 494.107 1004.48 507.682C984.099 519.849 958.604 519.1 933.95 518.372C931.981 518.32 930.01 518.254 928.061 518.201ZM820.536 435.474L820.536 435.485C820.547 447.541 823.023 459.14 827.932 469.937C845.707 509.105 897.556 522.477 926.881 526.956L927.499 527.009C929.537 527.063 931.586 527.116 933.657 527.18C958.512 527.917 986.678 528.74 1009.47 515.132C1033.11 501.011 1051.19 486.015 1066.37 467.927C1086.92 443.428 1104.4 416.478 1121.31 390.417C1129.56 377.707 1138.08 364.558 1146.83 351.913C1148.36 349.699 1150.01 347.359 1151.74 344.9C1167.85 321.982 1192.2 287.358 1192.2 256.582C1192.2 246.759 1189.73 237.823 1184.87 230.017C1172.41 210.028 1144.25 202.974 1101.19 209.034C1013.53 221.392 922.884 268.907 870.292 330.095C837.276 368.481 820.536 403.938 820.536 435.474V435.474Z" fill="#FF8039" fill-opacity="0.15"/>
<path fill-rule="evenodd" clip-rule="evenodd" d="M1077.36 316.144C1077.36 337.706 1061.46 367.186 1055.47 378.295C1041.22 404.708 1001.27 465.297 938.229 457.322C907.407 449.305 900.91 428.684 900.91 412.799C900.899 397.632 906.99 379.641 917.616 363.426C931.337 342.482 951.354 324.503 975.512 311.431C987.961 304.694 1030.97 283.465 1061.87 292.947C1072.15 296.101 1077.36 303.904 1077.36 316.144ZM898.571 412.8V412.8C898.571 429.455 905.369 451.059 937.766 459.472C1002.44 467.671 1043.08 406.128 1057.55 379.288C1063.61 368.064 1079.69 338.24 1079.69 316.144C1079.69 302.835 1073.94 294.326 1062.59 290.841C1030.78 281.081 987.005 302.676 974.352 309.517C949.857 322.771 929.549 341.007 915.624 362.269C904.784 378.818 898.571 397.236 898.571 412.8V412.8Z" fill="#FF8039" fill-opacity="0.15"/>
<path fill-rule="evenodd" clip-rule="evenodd" d="M-17.3059 321.664C-2.8903 350.172 13.453 366.073 34.131 371.691C58.8027 378.401 84.95 372.002 110.212 365.817C112.979 365.131 115.727 364.459 118.476 363.806C196.042 345.325 259.1 349.252 311.247 375.822C361.642 401.493 392.825 445.688 422.975 488.427C453.62 531.873 485.304 576.795 537.161 602.082C547.855 607.304 558.981 611.776 570.329 615.726L563.753 615.726C554.318 612.259 545.063 608.417 536.079 604.04C483.681 578.498 451.843 533.328 421.018 489.659C391.026 447.133 360.018 403.175 310.14 377.76C258.528 351.467 196.023 347.603 119.038 365.945C116.308 366.598 113.569 367.273 110.802 367.945C86.4073 373.917 58.7842 380.691 33.4946 373.821C5.39201 366.181 -10.1396 340.936 -19.3995 322.618C-36.5728 288.599 -49.0055 252.773 -59.0956 216.956L-59.0956 208.245C-48.6274 246.652 -35.6967 285.217 -17.3059 321.664" fill="#FF8039" fill-opacity="0.15"/>
<path fill-rule="evenodd" clip-rule="evenodd" d="M287.488 447.175C336.168 469.067 367.305 510.759 397.409 551.073C414.092 573.4 431.09 596.147 451.191 615.726L447.998 615.726C428.438 596.395 411.822 574.172 395.522 552.346C365.573 512.258 334.612 470.809 286.494 449.165C186.85 404.357 95.1167 501.595 34.4188 565.939L27.0145 573.744C13.2375 588.3 -1.35907 602.719 -17.5028 615.726L-21.1405 615.726C-4.25999 602.355 10.9629 587.402 25.2832 572.278L32.6598 564.473C93.8367 499.637 186.27 401.661 287.488 447.175" fill="#FF8039" fill-opacity="0.15"/>
<path fill-rule="evenodd" clip-rule="evenodd" d="M244.3 510.756C286.672 512.921 317.708 538.454 340.002 560.46C356.812 577.063 372.496 595.594 386.878 615.726L384.035 615.726C369.967 596.17 354.689 578.15 338.303 561.973C316.286 540.266 285.731 515.062 244.162 512.951C206.443 511.033 174.456 527.69 154.286 542.003C125.124 562.686 101.575 589.564 78.8749 615.726L75.8563 615.726C98.9992 589.02 122.982 561.452 152.892 540.254C173.376 525.719 205.852 508.807 244.3 510.756" fill="#FF8039" fill-opacity="0.15"/>
</svg>
