<svg width="34" height="34" viewBox="0 0 34 34" fill="none" xmlns="http://www.w3.org/2000/svg">
<path d="M15.6542 21.1793L13.0334 23.8002C12.4809 24.3527 11.6025 24.3527 11.0359 23.8143C10.88 23.6585 10.7242 23.5168 10.5684 23.361C9.10921 21.8877 7.79171 20.3435 6.61587 18.7285C5.45421 17.1135 4.51921 15.4985 3.83921 13.8977C3.17337 12.2827 2.83337 10.7385 2.83337 9.26516C2.83337 8.30183 3.00337 7.381 3.34337 6.531C3.68337 5.66683 4.22171 4.8735 4.97254 4.16516C5.87921 3.27266 6.87087 2.8335 7.91921 2.8335C8.31587 2.8335 8.71254 2.9185 9.06671 3.0885C9.43504 3.2585 9.76087 3.5135 10.0159 3.88183L13.3025 8.51433C13.5575 8.8685 13.7417 9.19433 13.8692 9.506C13.9967 9.8035 14.0675 10.101 14.0675 10.3702C14.0675 10.7102 13.9684 11.0502 13.77 11.376C13.5859 11.7018 13.3167 12.0418 12.9767 12.3818L11.9 13.501C11.7442 13.6568 11.6734 13.841 11.6734 14.0677C11.6734 14.181 11.6875 14.2802 11.7159 14.3935C11.7584 14.5068 11.8009 14.5918 11.8292 14.6768C12.0842 15.1443 12.5234 15.7535 13.1467 16.4902C13.7842 17.2268 14.4642 17.9777 15.2009 18.7285C15.3425 18.8702 15.4984 19.0118 15.64 19.1535C16.2067 19.706 16.2209 20.6127 15.6542 21.1793Z" fill="#FF8039"/>
<path d="M31.1242 25.9676C31.1242 26.3642 31.0533 26.7751 30.9117 27.1717C30.8692 27.2851 30.8267 27.3984 30.77 27.5117C30.5292 28.0217 30.2175 28.5034 29.8067 28.9567C29.1125 29.7217 28.3475 30.2742 27.4833 30.6284C27.4692 30.6284 27.455 30.6426 27.4408 30.6426C26.605 30.9826 25.6983 31.1667 24.7208 31.1667C23.2758 31.1667 21.7317 30.8267 20.1025 30.1326C18.4733 29.4384 16.8442 28.5034 15.2292 27.3276C14.6767 26.9167 11.5814 24.2731 11.0573 23.8339L15.5832 19.125C15.9799 19.4225 18.9833 21.9584 19.2808 22.1142C19.3517 22.1426 19.4367 22.1851 19.5358 22.2276C19.6492 22.2701 19.7625 22.2842 19.89 22.2842C20.1308 22.2842 20.315 22.1992 20.4708 22.0434L21.5475 20.9809C21.9017 20.6267 22.2417 20.3576 22.5675 20.1876C22.8933 19.9892 23.2192 19.8901 23.5733 19.8901C23.8425 19.8901 24.1258 19.9467 24.4375 20.0742C24.7492 20.2017 25.075 20.3859 25.4292 20.6267L30.1183 23.9559C30.4867 24.2109 30.7417 24.5084 30.8975 24.8626C31.0392 25.2167 31.1242 25.5709 31.1242 25.9676Z" fill="#FF8039"/>
</svg>
