<svg width="24" height="24" viewBox="0 0 24 24" fill="none" xmlns="http://www.w3.org/2000/svg">
<g clip-path="url(#clip0_964_1375)">
<path d="M1.63636 21.0048H5.45455V11.732L0 7.64111V19.3684C0 20.2738 0.733636 21.0048 1.63636 21.0048Z" fill="#4285F4"/>
<path d="M18.5455 21.0048H22.3637C23.2691 21.0048 24 20.2711 24 19.3684V7.64111L18.5455 11.732" fill="#34A853"/>
<path d="M18.5455 4.64101V11.7319L24 7.64101V5.45919C24 3.43555 21.69 2.28191 20.0727 3.49555" fill="#FBBC04"/>
<path d="M5.45453 11.732V4.64111L12 9.5502L18.5454 4.64111V11.732L12 16.6411" fill="#EA4335"/>
<path d="M0 5.45919V7.64101L5.45455 11.7319V4.64101L3.92727 3.49555C2.30727 2.28191 0 3.43555 0 5.45919Z" fill="#C5221F"/>
</g>
<defs>
<clipPath id="clip0_964_1375">
<rect width="24" height="24" fill="white"/>
</clipPath>
</defs>
</svg>
