<svg width="34" height="34" viewBox="0 0 34 34" fill="none" xmlns="http://www.w3.org/2000/svg">
<path d="M29.2117 11.9707C27.7242 5.42567 22.015 2.479 17 2.479C17 2.479 17 2.479 16.9858 2.479C11.985 2.479 6.26168 5.4115 4.77418 11.9565C3.11668 19.2665 7.59335 25.4573 11.645 29.3532C13.1467 30.7982 15.0733 31.5207 17 31.5207C18.9267 31.5207 20.8533 30.7982 22.3408 29.3532C26.3925 25.4573 30.8692 19.2807 29.2117 11.9707ZM17 19.0682C14.535 19.0682 12.5375 17.0707 12.5375 14.6057C12.5375 12.1407 14.535 10.1432 17 10.1432C19.465 10.1432 21.4625 12.1407 21.4625 14.6057C21.4625 17.0707 19.465 19.0682 17 19.0682Z" fill="#FF8039"/>
</svg>
