<svg width="24" height="24" viewBox="0 0 24 24" fill="none" xmlns="http://www.w3.org/2000/svg">
<g clip-path="url(#clip0_964_1367)">
<path d="M12 24C18.6274 24 24 18.6274 24 12C24 5.37258 18.6274 0 12 0C5.37258 0 0 5.37258 0 12C0 18.6274 5.37258 24 12 24Z" fill="url(#paint0_linear_964_1367)"/>
<path fill-rule="evenodd" clip-rule="evenodd" d="M5.43189 11.8735C8.93014 10.3493 11.2628 9.34452 12.43 8.85905C15.7626 7.47294 16.455 7.23216 16.9064 7.22421C17.0056 7.22246 17.2276 7.24706 17.3714 7.36372C17.4928 7.46223 17.5262 7.5953 17.5422 7.6887C17.5581 7.78209 17.578 7.99485 17.5622 8.1611C17.3816 10.0586 16.6002 14.6633 16.2027 16.7885C16.0345 17.6877 15.7032 17.9893 15.3826 18.0188C14.6857 18.0829 14.1566 17.5582 13.4816 17.1158C12.4255 16.4235 11.8288 15.9925 10.8036 15.3169C9.61884 14.5362 10.3869 14.1071 11.0621 13.4058C11.2388 13.2222 14.3092 10.4295 14.3686 10.1761C14.376 10.1444 14.3829 10.0263 14.3128 9.96397C14.2426 9.90161 14.139 9.92293 14.0643 9.93989C13.9584 9.96394 12.2712 11.0791 9.00264 13.2855C8.52373 13.6143 8.08994 13.7746 7.70129 13.7662C7.27283 13.7569 6.44864 13.5239 5.83594 13.3247C5.08444 13.0805 4.48716 12.9513 4.53917 12.5364C4.56626 12.3203 4.86383 12.0993 5.43189 11.8735Z" fill="white"/>
</g>
<defs>
<linearGradient id="paint0_linear_964_1367" x1="1200" y1="0" x2="1200" y2="2382.2" gradientUnits="userSpaceOnUse">
<stop stop-color="#2AABEE"/>
<stop offset="1" stop-color="#229ED9"/>
</linearGradient>
<clipPath id="clip0_964_1367">
<rect width="24" height="24" fill="white"/>
</clipPath>
</defs>
</svg>
