<svg width="34" height="34" viewBox="0 0 34 34" fill="none" xmlns="http://www.w3.org/2000/svg">
<path d="M17 4.25C11.1562 4.25 4.25 6.375 4.25 10.625H10.625C10.625 6.375 23.375 6.375 23.375 10.625H29.75C29.75 6.375 22.8438 4.25 17 4.25ZM12.8839 12.087L11.0245 17.595L7.57137 19.3226C7.21339 19.502 6.91209 19.7771 6.70091 20.1173C6.48973 20.4575 6.37692 20.8496 6.375 21.25V27.625C6.375 28.7385 7.3865 29.75 8.5 29.75H25.5C26.6135 29.75 27.625 28.7385 27.625 27.625V21.25C27.6229 20.8502 27.5102 20.4587 27.2994 20.1189C27.0887 19.7791 26.788 19.5043 26.4307 19.3247L22.9755 17.5971L21.1182 12.0849C20.9717 11.6691 20.703 11.3073 20.3473 11.0468C19.9916 10.7863 19.5656 10.6393 19.125 10.625H14.875C14.1164 10.6016 13.1856 11.1456 12.8839 12.087ZM4.25 12.75C4.25 13.9272 5.19775 14.875 6.375 14.875H8.5C9.67725 14.875 10.625 13.9272 10.625 12.75H4.25ZM23.375 12.75C23.375 13.9272 24.3228 14.875 25.5 14.875H27.625C28.8022 14.875 29.75 13.9272 29.75 12.75H23.375ZM17 17C18.1272 17 19.2082 17.4478 20.0052 18.2448C20.8022 19.0418 21.25 20.1228 21.25 21.25C21.25 22.3772 20.8022 23.4582 20.0052 24.2552C19.2082 25.0522 18.1272 25.5 17 25.5C15.8728 25.5 14.7918 25.0522 13.9948 24.2552C13.1978 23.4582 12.75 22.3772 12.75 21.25C12.75 20.1228 13.1978 19.0418 13.9948 18.2448C14.7918 17.4478 15.8728 17 17 17Z" fill="#FF8039"/>
</svg>
