<svg width="1280" height="143" viewBox="0 0 1280 143" fill="none" xmlns="http://www.w3.org/2000/svg">
<path d="M0 143H604.25C623.994 143 640 137.049 640 117.305C640 97.5605 623.605 71.6241 605.058 64.8527C586.311 58.0082 565.298 44.8865 548.408 21.1361C539.721 8.91963 526.642 0 511.651 0C384.859 0 0 0 0 0V143Z" fill="#075379"/>
<path d="M1280 143H675.75C656.006 143 640 137.049 640 117.305C640 97.5605 656.395 71.6241 674.942 64.8527C690.305 59.2434 707.191 49.4183 722.082 32.9822C736.534 17.0306 743.76 9.05474 748.015 6.29133C752.684 3.25935 753.894 2.72282 759.276 1.29832C764.181 0 770.635 0 783.541 0C923.249 0 1280 0 1280 0V143Z" fill="#075379"/>
<path d="M587 143H691.493L693 58.5977C693 58.5977 668.135 70.4043 639.5 71.5C610.865 70.4043 587 58.5977 587 58.5977V143Z" fill="#075379"/>
</svg>
